# xmcd
#
# Track frame offsets: 
#        183
#        10520
#        23358
#        35650
#        45973
#        59028
#        71638
#        83383
#        94405
#        107348
#        119153
#        131388
#        143573
#        155818
#        165553
#        175570
#        184720
#        194678
#
# Disc length: 2733 seconds
#
# Revision: 5
# Processed by: cddbd v1.5.1PL0 Copyright (c) Steve Scherf et al.
# Submitted via: ExactAudioCopy v0.95a5
#
DISCID=e50aab12
DTITLE=George Jones - The Best Of George Jones (1955-1967) [Rhino]
DYEAR=1991
DGENRE=Country
TTITLE0=Why, Baby, Why
TTITLE1=What Am I Worth
TTITLE2=Just One More
TTITLE3=Don't Stop The Music
TTITLE4=Color Of The Blues
TTITLE5=White Lightning
TTITLE6=The Window Up Above
TTITLE7=Tender Years
TTITLE8=Aching, Breaking Heart
TTITLE9=She Thinks I Still Care
TTITLE10=A Girl I Used To Know
TTITLE11=We Must Have Been Out Of Our Minds [with Melba Montgomery]
TTITLE12=You Comb Her Hair
TTITLE13=The Race Is On
TTITLE14=I've Got Five Dollars And It's Saturday Night [with Gene Pitn
TTITLE14=ey]
TTITLE15=Love Bug
TTITLE16=I'm A People
TTITLE17=Walk Through This World With Me
EXTD=YEAR: 1991
EXTT0=
EXTT1=
EXTT2=
EXTT3=
EXTT4=
EXTT5=
EXTT6=
EXTT7=
EXTT8=
EXTT9=
EXTT10=
EXTT11=With Melba Montgomery
EXTT12=
EXTT13=
EXTT14=With Gene Pitney
EXTT15=
EXTT16=
EXTT17=
PLAYORDER=
